<?xml version="1.0" encoding="UTF-8"?>
<svg width="400px" height="70px" viewBox="0 0 400 70" version="1.1" xmlns="http://www.w3.org/2000/svg" xmlns:xlink="http://www.w3.org/1999/xlink">
    <title>logo</title>
    <g id="logo" stroke="none" stroke-width="1" fill="none" fill-rule="evenodd">
        <path d="M-2.84217094e-14,2.8 L22.6615927,2.8 C26.4228854,2.8 29.917916,3.31666667 33.1466847,4.35 C36.3754534,5.38333333 38.9778613,7.07578125 40.9539084,9.42734375 C42.9299555,11.7789062 43.917979,14.953125 43.917979,18.95 C43.917979,21.5682292 43.4250751,23.9136719 42.4392671,25.9863281 C41.4534591,28.0589844 40.1538191,29.7559896 38.5403471,31.0773438 C36.9268751,32.3986979 35.1783823,33.2669271 33.2948687,33.6820313 C34.9656855,33.8851562 36.5904961,34.3601562 38.1693007,35.1070312 C39.7481052,35.8539062 41.1775528,36.8872396 42.4576435,38.2070312 C43.7377341,39.5268229 44.7576883,41.1677083 45.5175059,43.1296875 C46.2773235,45.0916667 46.6572323,47.3940104 46.6572323,50.0367188 C46.6572323,53.7393229 45.8283404,57.0005208 44.1705565,59.8203125 C42.5127726,62.6401042 40.1044245,64.8416667 36.9455121,66.425 C33.7865997,68.0083333 29.9216956,68.8 25.3507997,68.8 L-2.84217094e-14,68.8 L-2.84217094e-14,2.8 Z M14.9552436,56.8273437 L21.7654511,56.8273437 C23.9096225,56.8273437 25.6527718,56.5075521 26.994899,55.8679687 C28.3370262,55.2283854 29.3273957,54.2980469 29.9660074,53.0769531 C30.6046191,51.8558594 30.923925,50.39375 30.923925,48.690625 C30.923925,46.0182292 30.0989429,44.0585937 28.4489788,42.8117187 C26.7990146,41.5648437 24.4802025,40.9414062 21.4925423,40.9414062 L14.9552436,40.9414062 L14.9552436,56.8273437 Z M14.9552436,29.2359375 L21.0241402,29.2359375 C22.7861872,29.2359375 24.2616409,28.9238281 25.4505013,28.2996094 C26.6393617,27.6753906 27.5416288,26.7876302 28.1573027,25.6363281 C28.7729765,24.485026 29.0808134,23.153125 29.0808134,21.640625 C29.0808134,18.9348958 28.3097875,17.1138021 26.7677357,16.1773437 C25.2256839,15.2408854 23.1292129,14.7726562 20.4783226,14.7726562 L14.9552436,14.7726562 L14.9552436,29.2359375 Z" id="Shape" fill="#FFFFFF" fill-rule="nonzero"></path>
        <path d="M84.1578852,68.8 L84.1578852,62.1367187 C83.8607353,62.8273437 83.1092587,63.803776 81.9034555,65.0660156 C80.6976524,66.3282552 79.0938247,67.4661458 77.0919724,68.4796875 C75.0901202,69.4932292 72.7410718,70 70.044827,70 C66.068231,70 62.5763282,69.0272135 59.5691187,67.0816406 C56.5619092,65.1360677 54.2241994,62.5223958 52.5559892,59.240625 C50.887779,55.9588542 50.0536739,52.3119792 50.0536739,48.3 C50.0536739,44.2880208 50.887779,40.6411458 52.5559892,37.359375 C54.2241994,34.0776042 56.5619092,31.455599 59.5691187,29.4933594 C62.5763282,27.5311198 66.068231,26.55 70.044827,26.55 C72.644107,26.55 74.9045318,26.9613281 76.8261014,27.7839844 C78.747671,28.6066406 80.3157886,29.5740885 81.5304542,30.6863281 C82.7451197,31.7985677 83.5724477,32.8151042 84.0124381,33.7359375 L84.0124381,27.75 L99.1264224,27.75 L99.1264224,68.8 L84.1578852,68.8 Z M64.9768566,48.3 C64.9768566,50.1786458 65.4105913,51.8588542 66.2780606,53.340625 C67.1455299,54.8223958 68.30259,55.9815104 69.749241,56.8179687 C71.1958921,57.6544271 72.7958099,58.0726562 74.5489945,58.0726562 C76.3840257,58.0726562 78.0067511,57.6498698 79.4171707,56.8042969 C80.8275903,55.958724 81.9369501,54.7950521 82.74525,53.3132812 C83.55355,51.8315104 83.9577,50.1604167 83.9577,48.3 C83.9577,46.4395833 83.55355,44.7684896 82.74525,43.2867187 C81.9369501,41.8049479 80.8275903,40.6329427 79.4171707,39.7707031 C78.0067511,38.9084635 76.3840257,38.4773437 74.5489945,38.4773437 C72.7958099,38.4773437 71.1958921,38.9039062 69.749241,39.7570312 C68.30259,40.6101562 67.1455299,41.7776042 66.2780606,43.259375 C65.4105913,44.7411458 64.9768566,46.4213542 64.9768566,48.3 Z" id="Shape" fill="#FFFFFF" fill-rule="nonzero"></path>
        <path d="M133.765871,26.55 C136.656566,26.55 139.466849,27.1303385 142.196718,28.2910156 C144.926588,29.4516927 147.176326,31.2963542 148.945932,33.825 C150.715538,36.3536458 151.600341,39.6635417 151.600341,43.7546875 L151.600341,68.8 L136.358895,68.8 L136.358895,46.259375 C136.358895,43.3348958 135.658247,41.125 134.25695,39.6296875 C132.855654,38.134375 131.020622,37.3867187 128.751857,37.3867187 C127.24734,37.3867187 125.832358,37.7835938 124.506913,38.5773438 C123.181468,39.3710938 122.114596,40.4710937 121.306296,41.8773437 C120.497996,43.2835937 120.093846,44.9122396 120.093846,46.7632812 L120.093846,68.8 L104.879769,68.8 L104.879769,27.75 L120.093846,27.75 L120.093846,33.7859375 C120.46398,32.6833333 121.296651,31.5759115 122.59186,30.4636719 C123.887069,29.3514323 125.509794,28.4210937 127.460036,27.6726562 C129.410278,26.9242188 131.512223,26.55 133.765871,26.55 Z" id="Path" fill="#FFFFFF" fill-rule="nonzero"></path>
        <polygon id="Path" fill="#FFFFFF" fill-rule="nonzero" points="187.220487 27.75 204.437198 27.75 185.028615 47.3367187 206.406989 68.8 188.826661 68.8 172.95338 52.290625 172.95338 68.8 157.738521 68.8 157.738521 0 172.95338 0 172.95338 42.0273438"></polygon>
        <path d="M209.27861,2.8 L229.138391,2.8 C236.178238,2.8 242.012412,4.20833333 246.640914,7.025 C251.269415,9.84166667 254.733948,13.7333333 257.034515,18.7 C259.335081,23.6666667 260.485364,29.35 260.485364,35.75 C260.485364,42.1833333 259.337296,47.8833333 257.041161,52.85 C254.745026,57.8166667 251.282708,61.7166667 246.654207,64.55 C242.025706,67.3833333 236.1871,68.8 229.138391,68.8 L209.27861,68.8 L209.27861,2.8 Z M224.1971,16.0726562 L224.1971,55.5273437 L227.809818,55.5273437 C231.570589,55.5273437 234.688448,54.6727865 237.163394,52.9636719 C239.638341,51.2545573 241.496831,48.9121094 242.738866,45.9363281 C243.9809,42.9605469 244.606609,39.5984375 244.616089,35.85 C244.624855,32.0770833 244.01661,28.7005208 242.791258,25.7203125 C241.565905,22.7401042 239.705199,20.3871094 237.20914,18.6613281 C234.71308,16.9355469 231.579973,16.0726562 227.809818,16.0726562 L224.1971,16.0726562 Z" id="Shape" fill="#DC075F" fill-rule="nonzero"></path>
        <path d="M281.601453,2.8 L296.44722,2.8 L322.526037,68.8 L306.579251,68.8 L301.76073,55.5367187 L276.359884,55.5367187 L271.478806,68.8 L255.481191,68.8 L281.601453,2.8 Z M281.323852,42.4453125 L296.810838,42.4453125 L289.135768,20.8046875 L288.985629,20.8046875 L281.323852,42.4453125 Z" id="Shape" fill="#DC075F" fill-rule="nonzero"></path>
        <path d="M332.071728,35.75 C332.071728,39.5072917 332.847446,42.9154948 334.398881,45.9746094 C335.950317,49.033724 338.103872,51.4632812 340.859547,53.2632812 C343.615221,55.0632812 346.803849,55.9632812 350.425429,55.9632812 C354.079852,55.9632812 357.282555,55.0632812 360.033538,53.2632812 C362.78452,51.4632812 364.931168,49.033724 366.47348,45.9746094 C368.015793,42.9154948 368.786949,39.5072917 368.786949,35.75 C368.786949,31.9927083 368.015793,28.5928385 366.47348,25.5503906 C364.931168,22.5079427 362.78452,20.0829427 360.033538,18.2753906 C357.282555,16.4678385 354.079852,15.5640625 350.425429,15.5640625 C346.803849,15.5640625 343.615221,16.4678385 340.859547,18.2753906 C338.103872,20.0829427 335.950317,22.5079427 334.398881,25.5503906 C332.847446,28.5928385 332.071728,31.9927083 332.071728,35.75 Z M316.494034,35.75 C316.494034,30.95 317.349252,26.475 319.059689,22.325 C320.770126,18.175 323.159446,14.55 326.227649,11.45 C329.295853,8.35 332.894755,5.93333333 337.024358,4.2 C341.15396,2.46666667 345.620983,1.6 350.425429,1.6 C355.311721,1.6 359.815106,2.46666667 363.935585,4.2 C368.056065,5.93333333 371.64415,8.35 374.699842,11.45 C377.755534,14.55 380.124392,18.175 381.806417,22.325 C383.488442,26.475 384.329455,30.95 384.329455,35.75 C384.329455,40.5833333 383.506688,45.075 381.861155,49.225 C380.215623,53.375 377.877,57.0083333 374.845289,60.125 C371.813578,63.2416667 368.231487,65.6666667 364.099018,67.4 C359.966548,69.1333333 355.408685,70 350.425429,70 C345.35407,70 340.741469,69.1333333 336.587625,67.4 C332.433782,65.6666667 328.859251,63.2416667 325.864031,60.125 C322.868812,57.0083333 320.558341,53.375 318.932618,49.225 C317.306895,45.075 316.494034,40.5833333 316.494034,35.75 Z" id="Shape" fill="#DC075F" fill-rule="nonzero"></path>
        <path d="M390.878279,70 C388.387954,70 386.253296,69.1113281 384.474307,67.3339844 C382.695317,65.5566406 381.805822,63.4239583 381.805822,60.9359375 C381.805822,58.4057292 382.695317,56.2519531 384.474307,54.4746094 C386.253296,52.6972656 388.387954,51.8085937 390.878279,51.8085937 C393.401447,51.8085937 395.552526,52.6972656 397.331515,54.4746094 C399.110505,56.2519531 400,58.4057292 400,60.9359375 C400,63.4239583 399.110505,65.5566406 397.331515,67.3339844 C395.552526,69.1113281 393.401447,70 390.878279,70 Z" id="Path" fill="#DC075F" fill-rule="nonzero"></path>
    </g>
</svg>