<?xml version="1.0" encoding="UTF-8"?>
<svg width="86px" height="15px" viewBox="0 0 86 15" version="1.1" xmlns="http://www.w3.org/2000/svg" xmlns:xlink="http://www.w3.org/1999/xlink">
    <title>Logo</title>
    <g id="Logo" stroke="none" stroke-width="1" fill="none" fill-rule="evenodd">
        <g id="Group" fill-rule="nonzero">
            <g id="logo-copy">
                <path d="M-6.09036631e-15,0.6 L4.85605558,0.6 C5.66204687,0.6 6.41098201,0.710714286 7.10286101,0.932142857 C7.79474002,1.15357143 8.35239885,1.51623884 8.77583751,2.02014509 C9.19927618,2.52405134 9.41099551,3.20424107 9.41099551,4.06071429 C9.41099551,4.62176339 9.30537323,5.12435826 9.09412866,5.56849888 C8.8828841,6.01263951 8.60438982,6.37628348 8.25864581,6.6594308 C7.9129018,6.94257812 7.53822477,7.12862723 7.13461472,7.21757813 C7.49264689,7.26110491 7.8408206,7.36289062 8.17913586,7.52293527 C8.51745112,7.68297991 8.82376132,7.90440848 9.09806646,8.18722098 C9.3723716,8.47003348 9.5909332,8.82165179 9.75375126,9.24207589 C9.91656932,9.6625 9.99797835,10.1558594 9.99797835,10.722154 C9.99797835,11.5155692 9.82035865,12.2143973 9.46511925,12.8186384 C9.10987985,13.4228795 8.59380525,13.8946429 7.91689545,14.2339286 C7.23998566,14.5732143 6.41179191,14.7428571 5.43231422,14.7428571 L-6.09036631e-15,14.7428571 L-6.09036631e-15,0.6 Z M3.20469507,12.1772879 L4.66402523,12.1772879 C5.12349053,12.1772879 5.49702253,12.1087612 5.78462122,11.9717076 C6.07221991,11.834654 6.28444194,11.6352958 6.4212873,11.3736328 C6.55813267,11.1119699 6.62655535,10.7986607 6.62655535,10.4337054 C6.62655535,9.86104911 6.44977348,9.44112723 6.09620974,9.17393973 C5.742646,8.90675223 5.24575768,8.77315848 4.60554478,8.77315848 L3.20469507,8.77315848 L3.20469507,12.1772879 Z M3.20469507,6.26484375 L4.50517289,6.26484375 C4.8827544,6.26484375 5.19892305,6.19796317 5.45367885,6.06420201 C5.70843465,5.93044085 5.90177761,5.74020647 6.03370771,5.49349888 C6.16563782,5.24679129 6.23160287,4.96138393 6.23160287,4.63727679 C6.23160287,4.05747768 6.06638303,3.6672433 5.73594337,3.46657366 C5.4055037,3.26590402 4.95625991,3.1655692 4.388212,3.1655692 L3.20469507,3.1655692 L3.20469507,6.26484375 Z" id="Shape" fill="#FFFFFF"></path>
                <path d="M18.0338325,14.7428571 L18.0338325,13.3150112 C17.9701576,13.4630022 17.8091269,13.6722377 17.5507405,13.9427176 C17.2923541,14.2131975 16.9486767,14.4570312 16.5197084,14.6742188 C16.09074,14.8914063 15.5873725,15 15.0096058,15 C14.1574781,15 13.4092132,14.7915458 12.7648112,14.3746373 C12.1204091,13.9577288 11.6194713,13.3976563 11.2619977,12.6944196 C10.9045241,11.991183 10.7257873,11.2097098 10.7257873,10.35 C10.7257873,9.49029018 10.9045241,8.70881696 11.2619977,8.00558036 C11.6194713,7.30234375 12.1204091,6.74048549 12.7648112,6.32000558 C13.4092132,5.89952567 14.1574781,5.68928571 15.0096058,5.68928571 C15.5665944,5.68928571 16.0509711,5.77742746 16.462736,5.95371094 C16.8745009,6.12999442 17.2105261,6.33730469 17.4708116,6.57564174 C17.7310971,6.81397879 17.9083816,7.03180804 18.0026653,7.22912946 L18.0026653,5.94642857 L21.2413762,5.94642857 L21.2413762,14.7428571 L18.0338325,14.7428571 Z M13.9236121,10.35 C13.9236121,10.752567 14.0165553,11.1126116 14.2024416,11.4301339 C14.3883278,11.7476562 14.6362693,11.9960379 14.9462659,12.175279 C15.2562626,12.3545201 15.5991021,12.4441406 15.9747845,12.4441406 C16.3680055,12.4441406 16.7157324,12.3535435 17.0179652,12.1723493 C17.3201979,11.9911551 17.5579179,11.7417969 17.731125,11.4242746 C17.9043321,11.1067522 17.9909357,10.7486607 17.9909357,10.35 C17.9909357,9.95133929 17.9043321,9.59324777 17.731125,9.27572545 C17.5579179,8.95820312 17.3201979,8.70705915 17.0179652,8.52229353 C16.7157324,8.3375279 16.3680055,8.24514509 15.9747845,8.24514509 C15.5991021,8.24514509 15.2562626,8.33655134 14.9462659,8.51936384 C14.6362693,8.70217634 14.3883278,8.95234375 14.2024416,9.26986607 C14.0165553,9.58738839 13.9236121,9.94743304 13.9236121,10.35 Z" id="Shape" fill="#FFFFFF"></path>
                <path d="M28.6641152,5.68928571 C29.2835499,5.68928571 29.8857533,5.81364397 30.4707254,6.06236049 C31.0556974,6.31107701 31.5377841,6.70636161 31.9169854,7.24821429 C32.2961867,7.79006696 32.4857874,8.49933036 32.4857874,9.37600446 L32.4857874,14.7428571 L29.2197632,14.7428571 L29.2197632,9.91272321 C29.2197632,9.28604911 29.0696243,8.8125 28.7693465,8.49207589 C28.4690686,8.17165179 28.0758477,8.01143973 27.5896836,8.01143973 C27.267287,8.01143973 26.9640768,8.09648438 26.6800529,8.26657366 C26.3960289,8.43666295 26.1674134,8.67237723 25.9942062,8.97371652 C25.8209991,9.2750558 25.7343955,9.62405134 25.7343955,10.0207031 L25.7343955,14.7428571 L22.4742362,14.7428571 L22.4742362,5.94642857 L25.7343955,5.94642857 L25.7343955,7.23984375 C25.81371,7.00357143 25.9921396,6.76626674 26.2696843,6.52792969 C26.5472291,6.28959263 26.8949559,6.09023437 27.3128649,5.92985491 C27.7307739,5.76947545 28.1811907,5.68928571 28.6641152,5.68928571 Z" id="Path" fill="#FFFFFF"></path>
                <polygon id="Path" fill="#FFFFFF" points="40.1186758 5.94642857 43.807971 5.94642857 39.648989 10.1435826 44.2300691 14.7428571 40.4628558 14.7428571 37.0614386 11.2051339 37.0614386 14.7428571 33.8011117 14.7428571 33.8011117 0 37.0614386 0 37.0614386 9.00585938"></polygon>
                <path d="M44.8454163,0.6 L49.1010838,0.6 C50.6096224,0.6 51.8598026,0.901785714 52.8516243,1.50535714 C53.843446,2.10892857 54.5858461,2.94285714 55.0788246,4.00714286 C55.571803,5.07142857 55.8182922,6.28928571 55.8182922,7.66071429 C55.8182922,9.03928571 55.5722778,10.2607143 55.0802489,11.325 C54.58822,12.3892857 53.8462946,13.225 52.8544729,13.8321429 C51.8626512,14.4392857 50.6115215,14.7428571 49.1010838,14.7428571 L44.8454163,14.7428571 L44.8454163,0.6 Z M48.0422358,3.44414062 L48.0422358,11.8987165 L48.8163896,11.8987165 C49.6222692,11.8987165 50.2903818,11.7155971 50.8207274,11.3493583 C51.351073,10.9831194 51.7493209,10.4811663 52.0154712,9.84349888 C52.2816215,9.20583147 52.415702,8.48537946 52.4177333,7.68214286 C52.4196119,6.87366071 52.2892736,6.15011161 52.0266981,5.51149554 C51.7641226,4.87287946 51.3653999,4.36866629 50.83053,3.99885603 C50.2956601,3.62904576 49.6242799,3.44414062 48.8163896,3.44414062 L48.0422358,3.44414062 Z" id="Shape" fill="#F25B6E"></path>
                <path d="M60.3431685,0.6 L63.5244043,0.6 L69.1127222,14.7428571 L65.6955538,14.7428571 L64.6630136,11.9007254 L59.2199752,11.9007254 L58.1740298,14.7428571 L54.7459695,14.7428571 L60.3431685,0.6 Z M60.2836826,9.09542411 L63.6023224,9.09542411 L61.9576645,4.45814732 L61.9254919,4.45814732 L60.2836826,9.09542411 Z" id="Shape" fill="#F25B6E"></path>
                <path d="M71.1582275,7.66071429 C71.1582275,8.46584821 71.3244527,9.19617746 71.6569032,9.85170201 C71.9893536,10.5072266 72.4508297,11.027846 73.0413314,11.4135603 C73.6318332,11.7992746 74.3151105,11.9921317 75.0911633,11.9921317 C75.8742539,11.9921317 76.5605474,11.7992746 77.1500438,11.4135603 C77.7395401,11.027846 78.199536,10.5072266 78.5300315,9.85170201 C78.8605271,9.19617746 79.0257748,8.46584821 79.0257748,7.66071429 C79.0257748,6.85558036 78.8605271,6.12703683 78.5300315,5.47508371 C78.199536,4.82313058 77.7395401,4.30348772 77.1500438,3.91615513 C76.5605474,3.52882254 75.8742539,3.33515625 75.0911633,3.33515625 C74.3151105,3.33515625 73.6318332,3.52882254 73.0413314,3.91615513 C72.4508297,4.30348772 71.9893536,4.82313058 71.6569032,5.47508371 C71.3244527,6.12703683 71.1582275,6.85558036 71.1582275,7.66071429 Z M67.8201501,7.66071429 C67.8201501,6.63214286 68.0034112,5.67321429 68.3699333,4.78392857 C68.7364555,3.89464286 69.2484526,3.11785714 69.9059248,2.45357143 C70.563397,1.78928571 71.3345904,1.27142857 72.2195052,0.9 C73.1044199,0.528571429 74.0616393,0.342857143 75.0911633,0.342857143 C76.1382259,0.342857143 77.1032371,0.528571429 77.9861969,0.9 C78.8691567,1.27142857 79.6380322,1.78928571 80.2928233,2.45357143 C80.9476144,3.11785714 81.4552269,3.89464286 81.8156609,4.78392857 C82.1760948,5.67321429 82.3563118,6.63214286 82.3563118,7.66071429 C82.3563118,8.69642857 82.1800047,9.65892857 81.8273905,10.5482143 C81.4747763,11.4375 80.9736429,12.2160714 80.3239905,12.8839286 C79.6743381,13.5517857 78.9067473,14.0714286 78.0212181,14.4428571 C77.135689,14.8142857 76.159004,15 75.0911633,15 C74.0044435,15 73.016029,14.8142857 72.1259197,14.4428571 C71.2358104,14.0714286 70.4698394,13.5517857 69.8280067,12.8839286 C69.186174,12.2160714 68.6910731,11.4375 68.3427039,10.5482143 C67.9943347,9.65892857 67.8201501,8.69642857 67.8201501,7.66071429 Z" id="Shape" fill="#F25B6E"></path>
                <path d="M83.7596312,15 C83.2259901,15 82.7685635,14.8095703 82.3873514,14.4287109 C82.0061393,14.0478516 81.8155333,13.5908482 81.8155333,13.0577009 C81.8155333,12.5155134 82.0061393,12.05399 82.3873514,11.6731306 C82.7685635,11.2922712 83.2259901,11.1018415 83.7596312,11.1018415 C84.30031,11.1018415 84.7612555,11.2922712 85.1424676,11.6731306 C85.5236797,12.05399 85.7142857,12.5155134 85.7142857,13.0577009 C85.7142857,13.5908482 85.5236797,14.0478516 85.1424676,14.4287109 C84.7612555,14.8095703 84.30031,15 83.7596312,15 Z" id="Path" fill="#F25B6E"></path>
            </g>
        </g>
    </g>
</svg>